HIERARCHY
ROOT Hips
{
  OFFSET 2.26061 22.2878 23.7974
  CHANNELS 6 Xposition Yposition Zposition Zrotation Xrotation Yrotation
  JOINT LeftUpLeg
  {
    OFFSET 8.64259 1.95398 -2.38835
    CHANNELS 3 Zrotation Xrotation Yrotation
    JOINT LeftLeg
    {
      OFFSET 43.7702 0 0
      CHANNELS 3 Zrotation Xrotation Yrotation
      JOINT LeftFoot
      {
        OFFSET 40.6238 0 0
        CHANNELS 3 Zrotation Xrotation Yrotation
        JOINT LeftToeBase
        {
          OFFSET 12.7242 0 0
          CHANNELS 3 Zrotation Xrotation Yrotation
          End Site
          {
            OFFSET 0 0 0
          }
        }
      }
    }
  }
  JOINT RightUpLeg
  {
    OFFSET -8.2249 1.95398 -2.59336
    CHANNELS 3 Zrotation Xrotation Yrotation
    JOINT RightLeg
    {
      OFFSET 43.5653 0 0
      CHANNELS 3 Zrotation Xrotation Yrotation
      JOINT RightFoot
      {
        OFFSET 40.6238 0 0
        CHANNELS 3 Zrotation Xrotation Yrotation
        JOINT RightToeBase
        {
          OFFSET 12.7242 0 0
          CHANNELS 3 Zrotation Xrotation Yrotation
          End Site
          {
            OFFSET 0 0 0
          }
        }
      }
    }
  }
  JOINT Spine
  {
    OFFSET 0.165834 0.87714 6.61349
    CHANNELS 3 Zrotation Xrotation Yrotation
    JOINT Spine1
    {
      OFFSET 7.38963 1.71661e-005 0
      CHANNELS 3 Zrotation Xrotation Yrotation
      JOINT Spine2
      {
        OFFSET 11.9445 1.14441e-005 0
        CHANNELS 3 Zrotation Xrotation Yrotation
        JOINT Spine3
        {
          OFFSET 14.7254 4.19617e-005 0
          CHANNELS 3 Zrotation Xrotation Yrotation
          JOINT Spine4
          {
            OFFSET 10.9679 0 0
            CHANNELS 3 Zrotation Xrotation Yrotation
            JOINT RightShoulder
            {
              OFFSET 2.46616 -1.6653 3.69651
              CHANNELS 3 Zrotation Xrotation Yrotation
              JOINT RightArm
              {
                OFFSET 13.0012 0 0
                CHANNELS 3 Zrotation Xrotation Yrotation
                JOINT RightForeArm
                {
                  OFFSET 28.7848 1.52588e-005 0
                  CHANNELS 3 Zrotation Xrotation Yrotation
                  JOINT RightHand
                  {
                    OFFSET 26.5688 1.52588e-005 0
                    CHANNELS 3 Zrotation Xrotation Yrotation
                    End Site
                    {
                      OFFSET 0 0 0
                    }
                  }
                }
              }
            }
            JOINT LeftShoulder
            {
              OFFSET 2.38034 -1.29275 -3.7523
              CHANNELS 3 Zrotation Xrotation Yrotation
              JOINT LeftArm
              {
                OFFSET 16.3182 6.10351e-005 0
                CHANNELS 3 Zrotation Xrotation Yrotation
                JOINT LeftForeArm
                {
                  OFFSET 27.0901 0 0
                  CHANNELS 3 Zrotation Xrotation Yrotation
                  JOINT LeftHand
                  {
                    OFFSET 24.5451 1.52588e-005 0
                    CHANNELS 3 Zrotation Xrotation Yrotation
                    End Site
                    {
                      OFFSET 0 0 0
                    }
                  }
                }
              }
            }
            JOINT Neck
            {
              OFFSET 5.0226 -0.0266342 0
              CHANNELS 3 Zrotation Xrotation Yrotation
              JOINT Head
              {
                OFFSET 6.69363 2.86102e-005 0
                CHANNELS 3 Zrotation Xrotation Yrotation
                End Site
                {
                  OFFSET 0 0 0
                }
              }
            }
          }
        }
      }
    }
  }
}
MOTION
Frames:	10
Frame Time:	0.0416667
42.7835 86.9454 -36.4563 81.4238 -55.7032 84.4911 -161.89 57.3526 86.365 -76.203 11.7477 -1.55962 54.6816 -1.50283 1.58052 36.8732 6.52536 11.1335 179.462 30.8138 77.8712 -49.3132 -4.73258 -7.92007 65.9154 -5.24457 -2.88079 51.2705 0.0783667 -7.89587 0.142981 9.49393 -90.3601 7.88585 0.128216 -0.718195 -3.78528 0.0964765 -0.723134 -26.3191 0.338137 -0.646457 -6.3065 0.338132 -0.646463 92.7963 -48.6382 -96.7762 23.9464 -5.3733 3.39726 6.4585 -2.3908 -74.9414 -35.1917 -0.0772815 -5.315 -108.481 -53.3697 53.5365 -36.6046 31.0382 25.9278 4.42438 14.005 -46.23 4.35686 0.212936 0.788219 10.4016 17.0101 -7.73714 11.7549 21.6783 26.666 
45.7472 88.6731 -33.7273 80.092 -52.8213 83.4509 -159.786 58.9068 86.9192 -69.818 11.7587 -2.89258 49.4653 -6.3351 -2.14282 37.2038 6.82014 10.3489 177.941 25.8416 77.7689 -43.8327 -4.51995 -8.42168 63.9553 -4.52417 -2.52779 52.5642 -0.12407 -9.11326 0.22243 9.31707 -90.1964 8.23996 0.357665 -0.408894 -3.431 0.339336 -0.424252 -25.9663 0.46402 -0.282495 -5.9536 0.464012 -0.282506 93.1221 -47.9036 -96.3992 24.5534 -6.35098 3.59492 3.44046 -2.6791 -79.8899 -34.976 0.00361621 -5.46469 -106.723 -52.4106 55.5052 -41.8511 32.2533 32.9927 6.23245 12.3106 -51.6158 6.75722 0.228812 -0.391165 11.4788 16.1052 -9.01863 10.8516 21.001 27.1119 
49.4501 90.9042 -31.0513 79.3088 -49.4037 83.4135 -157.617 58.8752 86.71 -63.2238 13.0241 -4.64749 46.5883 -8.65936 -5.11911 33.4702 3.25548 11.7333 175.703 20.1851 77.6424 -37.2912 -5.99191 -8.69169 58.8281 -2.16103 -1.18048 53.4665 -0.441589 -11.0435 0.261844 9.09495 -90.1254 8.68469 0.466863 -0.278876 -2.9862 0.454146 -0.299152 -25.522 0.529074 -0.12567 -5.50933 0.529086 -0.125671 94.128 -47.734 -94.8334 24.7169 -8.02958 4.53128 0.710455 -3.24804 -84.3577 -34.836 -0.00105084 -5.33592 -104.935 -51.3456 57.5233 -46.9352 33.4232 38.9442 5.73213 8.61659 -56.3802 6.50915 0.207035 -0.53465 10.1428 14.751 -9.95498 11.8501 19.9333 26.2795 
54.3645 93.3207 -28.5339 77.6847 -46.4238 82.844 -156.38 57.1657 86.148 -55.3738 16.1039 -6.69025 43.1498 -10.9846 -6.82037 32.2067 2.15279 9.82472 173.032 15.7537 76.821 -30.2022 -7.71415 -8.22626 49.851 1.58468 1.62353 52.7621 -0.221843 -9.86722 0.292127 8.74703 -90.0602 9.38026 0.555341 -0.16073 -2.29058 0.547745 -0.185026 -24.8267 0.577971 0.0136093 -4.81409 0.577982 0.0136088 94.8536 -47.7103 -93.6835 24.4187 -10.3931 6.20821 -1.10719 -3.09082 -87.5045 -33.2902 0.337025 -6.44291 -103.045 -50.3188 59.7616 -52.0727 34.4306 44.1052 4.59101 4.91524 -60.8886 7.95568 0.118345 -2.02033 7.07902 13.7433 -10.5445 13.2769 19.0523 25.4631 
59.911 95.6823 -26.6179 75.6562 -45.4286 83.4209 -156.804 55.2362 87.8018 -48.7148 17.7798 -8.42809 41.5691 -12.1742 -7.84376 30.0301 0.115628 9.75771 171.251 11.7549 76.8337 -21.2582 -7.27133 -6.88342 39.578 4.58229 4.82003 44.8286 0.399377 -5.3018 0.540018 8.33144 -90.1356 10.2128 1.01415 -0.35556 -1.45782 0.997512 -0.39986 -23.9962 1.07413 -0.0342953 -3.9835 1.07411 -0.0342931 95.6172 -48.1341 -92.4105 23.4497 -12.9804 8.71201 -3.76214 -2.14226 -91.6968 -31.368 -0.0660724 -4.94697 -101.926 -49.7153 61.1195 -55.659 32.4782 47.1057 5.84576 3.66873 -64.4308 10.1622 0.344322 -0.41193 3.65774 12.7024 -10.9019 14.6336 17.9299 24.1613 
65.4843 97.5162 -24.9465 76.6207 -44.5472 87.257 -158.133 51.3702 90.7041 -44.0595 18.561 -9.00719 40.0036 -13.1458 -8.30103 31.7888 1.89055 7.84203 171.251 7.58826 78.6664 -19.7036 -8.12223 -6.89232 36.8312 5.70558 6.20291 28.2134 0.581939 -9.71656 0.786599 8.17815 -90.3258 10.5225 1.41707 -0.774021 -1.14799 1.38168 -0.835659 -23.6889 1.58418 -0.312264 -3.67627 1.58421 -0.312251 96.1326 -48.3673 -91.5647 23.0636 -15.0819 11.3654 -9.39245 -1.77344 -94.4712 -30.8698 0.0457049 -5.0953 -100.713 -49.3877 62.7443 -56.9618 29.8374 48.9677 3.06612 0.584812 -66.719 11.4261 0.109805 -2.70636 1.07479 11.5207 -11.1169 16.2481 16.653 22.475 
70.7151 98.312 -23.1441 76.3715 -42.4663 88.6289 -158.685 47.9937 90.9739 -40.9921 19.3224 -9.75693 40.7926 -12.656 -8.94779 29.1503 -0.661637 9.31189 171.869 5.90681 79.7842 -22.9652 -7.1177 -7.02829 40.2821 4.71752 4.87955 23.5583 0.613797 -7.88803 0.795567 7.96633 -90.3374 10.9465 1.42775 -0.807125 -0.723945 1.39083 -0.869187 -23.2649 1.60429 -0.340637 -3.25224 1.60429 -0.340631 96.0321 -47.5154 -91.8309 24.7903 -16.3944 14.3616 -12.9341 -0.627718 -96.7061 -30.1065 -0.197474 -4.0444 -98.9331 -49.5129 65.3783 -55.839 26.069 48.3061 1.88991 -0.520245 -67.269 12.7847 0.0553227 -3.27204 0.502459 11.0659 -9.54411 16.4019 15.4499 19.4325 
75.6229 98.2305 -21.5423 76.4068 -39.6406 89.6705 -159.265 44.3705 90.2378 -39.0967 19.1851 -10.143 41.1617 -12.434 -8.90057 27.4311 -2.37305 10.1476 172.758 5.61701 80.8907 -29.9331 -5.20393 -7.01529 44.107 3.63396 3.56073 25.2145 0.596271 -8.09039 0.785845 7.80238 -90.2925 11.274 1.42777 -0.723924 -0.396346 1.39451 -0.786073 -22.9375 1.57931 -0.261258 -2.92485 1.57931 -0.26127 96.4573 -47.2758 -91.1795 26.1292 -17.3407 17.4662 -14.6823 -0.988831 -96.6302 -28.3735 -0.211576 -3.89038 -97.5176 -49.861 67.5681 -53.3563 23.9926 46.4662 2.05409 -0.0777048 -66.5486 17.5959 0.418857 -1.52895 0.380673 10.1539 -8.734 16.8013 14.074 16.9346 
80.5072 97.4088 -20.0674 77.881 -35.6181 91.9819 -160.482 39.4921 89.868 -38.1139 18.1194 -9.59128 40.4362 -13.051 -6.34029 33.3923 3.54345 2.51669 172.984 4.69389 82.2554 -37.9686 -3.3604 -6.18242 46.0488 3.17974 3.02656 26.3243 0.72382 -9.85758 0.591298 7.81194 -90.2789 11.2531 1.04702 -0.658727 -0.417655 1.01702 -0.704185 -22.9558 1.19657 -0.313574 -2.94314 1.19657 -0.313576 96.3534 -47.6541 -91.3004 27.2422 -18.2006 20.0238 -16.8876 -1.44283 -94.5628 -28.2364 -0.287377 -3.44752 -96.4252 -51.3729 69.6402 -47.1168 19.9213 42.4939 -2.05803 -2.42525 -65.6627 16.3519 0.857683 1.37665 0.719106 9.34012 -8.37876 16.7953 12.8439 14.6521 
85.5417 96.2904 -18.5831 77.7048 -33.3904 92.2265 -161.102 35.6805 89.0923 -39.3927 18.9895 -10.0011 48.6418 -7.82246 -2.64676 33.795 3.84174 3.40824 174.215 5.63291 83.148 -45.4895 -2.72905 -6.01924 46.7153 2.56648 2.45129 24.8007 0.44249 -6.43687 0.59179 7.72385 -90.1545 11.4294 1.10527 -0.420827 -0.241148 1.0857 -0.469074 -22.7801 1.18065 -0.069145 -2.76743 1.18066 -0.0691456 95.7442 -47.9923 -92.2274 28.1629 -17.8095 22.9258 -14.4173 -3.04257 -91.8686 -24.6653 -0.370104 -3.11098 -97.6585 -54.0078 68.7014 -39.8875 15.1653 38.3995 -2.14922 -2.55135 -63.3747 21.579 0.819833 -0.121448 -0.0181785 8.61542 -6.63935 18.0652 11.4779 11.6781 
